<?xml version="1.0" encoding="UTF-8" standalone="no"?>
<!-- Created with Inkscape (http://www.inkscape.org/) -->

<svg
   width="105.83332mm"
   height="105.83333mm"
   viewBox="0 0 105.83332 105.83332"
   version="1.1"
   id="svg1"
   xml:space="preserve"
   sodipodi:docname="ball.svg"
   inkscape:version="1.4 (e7c3feb1, 2024-10-09)"
   xmlns:inkscape="http://www.inkscape.org/namespaces/inkscape"
   xmlns:sodipodi="http://sodipodi.sourceforge.net/DTD/sodipodi-0.dtd"
   xmlns="http://www.w3.org/2000/svg"
   xmlns:svg="http://www.w3.org/2000/svg"><sodipodi:namedview
     id="namedview1"
     pagecolor="#ffffff"
     bordercolor="#000000"
     borderopacity="0.25"
     inkscape:showpageshadow="2"
     inkscape:pageopacity="0.0"
     inkscape:pagecheckerboard="0"
     inkscape:deskcolor="#d1d1d1"
     inkscape:document-units="mm"
     inkscape:export-bgcolor="#ffffff00"
     inkscape:zoom="2.5225"
     inkscape:cx="199.80178"
     inkscape:cy="200"
     inkscape:window-width="3440"
     inkscape:window-height="1302"
     inkscape:window-x="0"
     inkscape:window-y="25"
     inkscape:window-maximized="1"
     inkscape:current-layer="g1"><inkscape:page
       x="0"
       y="2.2385957e-06"
       width="105.83332"
       height="105.83333"
       id="page3"
       margin="0"
       bleed="0" /></sodipodi:namedview><defs
     id="defs1" /><g
     id="g1"
     inkscape:groupmode="layer"
     inkscape:label="1"
     transform="matrix(0.26458333,0,0,0.26458334,141.87711,-61.51933)"><g
       id="g15"><path
         id="path2"
         d="m -335.83201,233.30685 c -110.45733,0 -200,89.54267 -200,200 0,110.45733 89.54267,199.99999 200,199.99999 110.45733,0 199.99999,-89.54266 199.99999,-199.99999 0,-110.45733 -89.54266,-200 -199.99999,-200 z m 144.80266,321.63639 -11.98533,2.08494 -0.436,0.0765 v -9.3e-4 l -5.44667,-36.9568 v -0.002 l 6.88934,-20.66787 18.66666,-56.00266 6.576,-6.11334 15.60667,-14.50933 0.51866,0.59467 13.83467,15.84133 c -1.36933,43.996 -17.76533,84.18693 -44.224,115.65506 z m -113.07066,64.81773 c 0,0.002 -0.003,0.002 -0.003,0.002 l -19.45866,-9.04266 -0.005,-0.003 v -10e-4 l -10.276,-23.61293 -3.74,-8.59373 50.97733,-43.42614 2.92134,-2.4896 68.252,-9.23586 1.73333,-0.2344 v 0.003 l 5.46933,37.1088 v 0.004 l -38.476,33.91773 -14.90933,13.1412 c -13.43333,5.7364 -27.66667,9.95933 -42.48533,12.46293 z m -161.31013,-48.70679 18.46413,9.07293 0.002,10e-4 4.312,6.1708 4.04533,5.78906 c -9.5708,-6.20466 -18.54946,-13.25 -26.82346,-21.03386 z m 19.75,3.92813 h -5.4e-4 l -0.003,-9.3e-4 -30.64693,-15.05734 -0.002,-0.002 c -16.14907,-17.90733 -28.91827,-38.91866 -37.31414,-62.0276 l 2.81774,-41.51199 1.6052,-1.632 16.66306,-16.95067 47.3208,44.068 0.1536,0.476 0.003,-10e-4 9.87346,30.64627 12.9348,40.14587 -0.8572,0.79946 z m -77.99947,-119.61146 c -0.84218,-7.23867 -1.2927,-14.596 -1.29428,-22.06267 0.003,-44.61067 15.43908,-85.592 41.26722,-117.93333 l 0.67973,0.8 5.13067,6.03467 v 0.003 l 5.40266,32.408 -0.002,0.005 -22.07453,77.82534 -5.4e-4,0.004 -15.72133,15.99066 -4.90627,4.99067 -0.67386,0.68533 -0.4204,0.428 z m 92.7672,-177.73733 0.002,-10e-4 80.6436,-19.024 10e-4,0.003 1.78666,15.34 2.86,24.55067 -37.14666,31.80133 -17.11734,14.65333 -67.80266,6.98667 -5.00467,-30.02133 z m 95.0604,-33.44534 c 14.95333,0 29.49733,1.73467 43.44266,5.01467 l -20.244,1.35067 -36.29866,2.41733 -82.2656,19.40933 -1.2656,-1.664 c 28.2828,-16.844 61.3112,-26.528 96.6312,-26.528 z m 138.82266,60.70534 c 11.55467,12.48533 21.45067,26.52266 29.32533,41.77066 l 0.46,7.51067 3.55734,57.93466 0.0173,0.28534 0.332,5.38666 -0.003,10e-4 -22.39733,20.82666 -53.31866,-42.57066 -0.003,-0.003 -17.85733,-64.444 -1.324,-4.78 13.55466,-10.50533 18.10134,-14.028 h 0.003 l 2.48667,0.22 27.06267,2.39333 z m -176.89999,117.38266 -3.19467,-10.896 -18.52933,-63.21867 52.78,-45.18799 0.304,-0.25867 76.78533,24.38 2.45733,0.78 19.08133,68.85866 v 10e-4 l -52.36533,50.036 -2.85467,2.728 v 10e-4 l -73.18399,-26.75333 v 0 l 0.001,-10e-4 z m 153.37466,-124.66933 0.003,-0.001 -4.22934,-0.37467 -30.81333,-26.748 -18.34267,-15.924 c 27.13734,9.40133 51.46934,24.81467 71.41334,44.64267 z m -220.226,181.19599 63.486,-52.23333 39.28934,14.36267 35.86666,13.112 14.36267,75.20426 -2.68134,2.2876 -2.756,2.34534 h 0.001 l -46.55467,39.65826 -10e-4,-0.002 -1.176,1.00533 -0.77067,0.6556 -9.176,-2.83946 -66.35773,-20.53134 z m 114.926,136.57947 12.32933,5.72922 c -7.32266,0.86354 -14.77199,1.31406 -22.32666,1.31406 -5.78533,0 -11.508,-0.26459 -17.16,-0.77656 l 27.15733,-6.26672"
         style="fill:#100f0d;fill-opacity:1;fill-rule:nonzero;stroke:none;stroke-width:0.133333" /><path
         style="fill:#ffffff;stroke-width:0.396432"
         d="m 104.59666,38.83325 c -0.2824,-0.735931 -0.55986,-0.49805 2.94274,-2.52302 9.82253,-5.678738 22.54313,-11.242634 34.80742,-15.224499 29.00366,-9.416661 60.35257,-11.6265053 90.55705,-6.383538 10.86566,1.886088 11.82211,1.692833 -18.63231,3.764701 l -27.55204,1.874413 -24.38057,5.767608 c -48.56089,11.487841 -56.45744,13.33608 -56.97804,13.33608 -0.29122,0 -0.63514,-0.275286 -0.76425,-0.611745 z"
         id="path1"
         transform="translate(-536.22845,232.514)" /><path
         style="fill:#ffffff;stroke-width:0.396432"
         d="m 68.591194,118.23588 c -0.112686,-0.49059 -1.241364,-7.14805 -2.508173,-14.79436 L 63.779732,89.539128 83.940592,68.159061 c 11.088473,-11.75904 20.491428,-21.71424 20.895458,-22.122668 0.54531,-0.551254 11.03566,-3.17352 40.71258,-10.176904 21.98788,-5.188868 40.04969,-9.362595 40.13733,-9.274949 0.0876,0.08765 1.1906,8.94872 2.45101,19.691274 1.75378,14.947577 2.18204,19.636547 1.82462,19.977704 -1.7024,1.624928 -53.60997,45.844052 -53.95301,45.961592 -0.23584,0.0808 -8.36735,0.95694 -18.07003,1.94696 -9.70267,0.99002 -24.509412,2.51029 -32.903862,3.37837 -8.39445,0.86809 -15.482231,1.58038 -15.750624,1.58288 -0.268393,0.002 -0.580184,-0.39686 -0.69287,-0.88744 z"
         id="path3"
         transform="translate(-536.22845,232.514)" /><path
         style="fill:#ffffff;stroke-width:0.396432"
         d="m 199.38378,203.09552 -36.88975,-13.5104 -10.80589,-36.87777 c -10.38666,-35.44704 -10.77802,-36.90414 -10.08745,-37.55731 0.62474,-0.59091 50.08056,-42.903136 51.65996,-44.197997 0.4861,-0.398522 7.79491,1.801479 40.03765,12.051594 l 39.44299,12.539112 9.40631,33.893641 c 5.17346,18.6415 9.41123,34.10612 9.41726,34.36581 0.0111,0.47813 -54.57166,52.86664 -55.03839,52.82583 -0.13911,-0.0122 -16.85332,-6.1018 -37.14269,-13.53251 z"
         id="path4"
         transform="translate(-536.22845,232.514)" /><path
         style="fill:#ffffff;stroke-width:0.396432"
         d="m 12.720023,222.13805 c -0.30339,-0.96449 -0.666122,-5.96404 -1.011738,-13.94484 -1.675104,-38.68062 9.054125,-77.70772 30.336816,-110.348842 3.182202,-4.880522 10.0988,-14.395408 10.464366,-14.395408 0.122137,0 1.439544,1.432389 2.927576,3.183087 l 2.70551,3.183087 2.69292,16.133346 2.692924,16.13334 -10.844068,38.26534 c -5.964238,21.04593 -10.981615,38.56963 -11.149729,38.94156 -0.168113,0.37193 -5.077587,5.57427 -10.909942,11.56075 -11.544651,11.84973 -10.285173,10.91911 -15.657605,11.56938 -1.56412,0.18932 -2.121042,0.11972 -2.24703,-0.2808 z"
         id="path5"
         transform="translate(-536.22845,232.514)" /><path
         style="fill:#ffffff;stroke-width:0.396432"
         d="m 75.101142,334.62863 -14.843461,-7.29406 -2.814273,-3.18971 C 44.345048,309.29916 32.710593,290.12647 24.743535,270.25798 l -1.951177,-4.8659 1.412438,-20.70244 1.412438,-20.70244 8.845098,-8.92125 c 4.864805,-4.90669 9.001819,-8.97281 9.193366,-9.03582 0.191546,-0.063 10.883881,9.69821 23.760742,21.69159 l 23.41248,21.80615 11.4423,35.50518 c 6.87958,21.34719 11.29667,35.64374 11.07711,35.85266 -7.88526,7.50327 -22.668889,21.03699 -22.979862,21.03699 -0.233126,0 -7.103425,-3.28233 -15.267326,-7.29407 z"
         id="path6"
         transform="translate(-536.22845,232.514)" /><path
         style="fill:#ffffff;stroke-width:0.396432"
         d="m 156.59068,330.74303 c -20.49554,-6.34479 -37.29723,-11.55669 -37.33709,-11.58199 -0.0399,-0.0253 -5.26251,-16.14064 -11.60588,-35.81185 -6.34337,-19.67122 -11.628111,-36.01267 -11.74387,-36.31433 -0.135113,-0.3521 1.749276,-2.17536 5.26296,-5.09225 11.00829,-9.13854 57.05313,-46.95383 57.53409,-47.25107 0.43227,-0.26716 74.339,26.38701 75.05251,27.06739 0.18348,0.17496 13.78527,70.77659 14.34234,74.44549 0.0769,0.50657 -53.19371,46.10005 -53.84401,46.08423 -0.21803,-0.005 -17.16551,-5.20083 -37.66105,-11.54562 z"
         id="path7"
         transform="translate(-536.22845,232.514)" /><path
         style="fill:#ffffff;stroke-width:0.396432"
         d="m 91.341278,354.96652 c -7.145022,-5.08149 -18.108054,-14.06033 -17.684547,-14.48384 0.08288,-0.0829 3.580563,1.51526 7.772624,3.55143 l 7.621928,3.70213 3.562279,5.06741 c 1.959253,2.78708 3.492097,5.1376 3.40632,5.22338 -0.08578,0.0858 -2.191149,-1.29145 -4.678604,-3.06051 z"
         id="path8"
         transform="translate(-536.22845,232.514)" /><path
         style="fill:#ffffff;stroke-width:0.396432"
         d="m 222.59663,382.56917 -9.71259,-4.50073 -6.98571,-15.9916 c -3.84214,-8.79538 -6.87485,-16.09721 -6.73935,-16.22628 0.13551,-0.12907 12.237,-10.43538 26.89222,-22.90291 l 26.64585,-22.66822 33.61183,-4.53924 c 18.48651,-2.49658 34.15796,-4.63506 34.82543,-4.75217 l 1.2136,-0.21293 2.72013,18.47139 c 1.73085,11.75359 2.57703,18.56739 2.32665,18.73535 -0.21641,0.14518 -12.22218,10.69927 -26.67948,23.45354 -25.76165,22.727 -26.35025,23.21561 -29.50656,24.49392 -9.36561,3.7931 -22.10013,7.67153 -31.54354,9.60691 -3.17359,0.65041 -6.12695,1.26157 -6.56303,1.35813 -0.46787,0.1036 -4.77408,-1.6693 -10.50545,-4.32516 z"
         id="path9"
         transform="translate(-536.22845,232.514)" /><path
         style="fill:#ffffff;stroke-width:0.396432"
         d="m 191.77899,389.51022 c -3.32234,-0.14852 -6.12701,-0.35642 -6.23259,-0.462 -0.10558,-0.10558 5.42788,-1.48737 12.29656,-3.07065 l 12.48853,-2.87869 5.73633,2.66907 c 3.15498,1.46799 5.69164,2.70864 5.63703,2.75701 -0.21798,0.19304 -12.73637,0.95127 -18.13696,1.09854 -3.16155,0.0862 -8.46655,0.0352 -11.7889,-0.11328 z"
         id="path10"
         transform="translate(-536.22845,232.514)" /><path
         style="fill:#ffffff;stroke-width:0.396432"
         d="m 330.25108,306.01503 -2.68875,-18.3353 12.75668,-38.27006 12.75668,-38.27007 10.57811,-9.84912 c 5.81796,-5.41701 10.79265,-9.98026 11.05487,-10.14055 0.30881,-0.18878 2.94738,2.52922 7.48997,7.71543 l 7.01321,8.00687 -0.26202,4.98807 c -1.00936,19.21565 -5.70071,40.41666 -12.94626,58.5064 -7.42653,18.54156 -16.50435,33.88174 -30.02811,50.74303 -0.83173,1.03699 -1.37913,1.20846 -6.96913,2.18299 l -6.0665,1.0576 z"
         id="path11"
         transform="translate(-536.22845,232.514)" /><path
         style="fill:#ffffff;stroke-width:0.396432"
         d="m 323.68682,184.39877 -26.36274,-21.10356 -9.41959,-34.07575 c -5.18077,-18.74166 -9.41764,-34.28019 -9.41526,-34.530058 0.002,-0.249867 7.04586,-5.911689 15.65217,-12.581825 l 15.64784,-12.127521 14.57459,1.272913 14.57459,1.272913 1.87036,2.009587 c 9.01388,9.68484 22.07811,28.442131 26.6403,38.249471 1.09153,2.34644 0.76479,-2.18512 5.10254,70.76787 l 0.0946,1.59048 -10.83574,10.10427 c -5.95966,5.55735 -11.04391,10.13814 -11.29832,10.17952 -0.25441,0.0414 -12.3258,-9.42135 -26.8253,-21.02831 z"
         id="path12"
         transform="translate(-536.22845,232.514)" /><path
         style="fill:#ffffff;stroke-width:0.396432"
         d="m 321.294,65.435057 c -5.13171,-0.47472 -9.54726,-0.997166 -9.81233,-1.160991 -0.26508,-0.163826 -5.43212,-4.59649 -11.48231,-9.850367 -6.05019,-5.253877 -16.57752,-14.385106 -23.39406,-20.29162 -6.81654,-5.906513 -12.22818,-10.794291 -12.02587,-10.861728 1.28491,-0.428302 20.98491,8.644758 30.16785,13.894144 11.87781,6.789904 28.57932,19.355074 36.45518,27.426597 l 1.76738,1.811287 -1.17273,-0.05209 c -0.645,-0.02865 -5.3714,-0.440504 -10.50311,-0.915227 z"
         id="path13"
         transform="translate(-536.22845,232.514)" /><path
         style="fill:#ffffff;stroke-width:0.396432"
         d="M 199.38174,203.09948 162.48995,189.59389 151.8477,153.27068 c -5.85324,-19.97776 -10.7163,-36.60339 -10.8068,-36.94582 -0.20254,-0.76638 52.32418,-45.819889 53.21493,-45.643807 0.54262,0.107262 17.91585,5.599185 61.04645,19.297633 9.37562,2.977734 17.1637,5.536422 17.30685,5.685973 0.2743,0.286571 18.96669,67.501271 18.96669,68.201031 0,0.44156 -54.62311,52.79892 -55.04518,52.76192 -0.1414,-0.0124 -16.85841,-6.10005 -37.1489,-13.52813 z"
         id="path14"
         transform="translate(-536.22845,232.514)" /><path
         style="fill:#ffffff;stroke-width:0.396432"
         d="m 183.15164,338.99147 c -5.66898,-1.79029 -22.39295,-6.99199 -37.16437,-11.55934 l -26.85714,-8.30428 -1.18121,-3.76611 c -0.64967,-2.07135 -5.91086,-18.39445 -11.69154,-36.27353 l -10.510329,-32.50744 1.482272,-1.3211 c 2.173388,-1.93707 60.771617,-50.15753 61.415617,-50.53889 0.52101,-0.30853 11.63333,3.6487 56.6177,20.16223 8.7215,3.20162 16.45643,6.01522 17.18872,6.25245 0.73229,0.23722 1.39838,0.61844 1.48021,0.84714 0.14372,0.4017 13.8375,72.08073 14.10353,73.82385 0.13082,0.85711 -3.06867,3.65174 -45.98901,40.16976 -3.97209,3.37959 -7.52916,6.17297 -7.9046,6.20751 -0.37544,0.0346 -5.32088,-1.40197 -10.98985,-3.19225 z"
         id="path15"
         transform="translate(-536.22845,232.514)" /></g></g></svg>
